<svg xmlns="http://www.w3.org/2000/svg" width="23.233" height="23.233" viewBox="0 0 23.233 23.233">
  <path id="female" d="M12.857,38.429A6.429,6.429,0,1,0,5,44.7V47H3.393a.537.537,0,0,0-.536.536v1.786a.537.537,0,0,0,.536.536H5v1.607A.537.537,0,0,0,5.536,52H7.321a.537.537,0,0,0,.536-.536V49.857H9.464A.537.537,0,0,0,10,49.321V47.536A.537.537,0,0,0,9.464,47H7.857V44.7A6.43,6.43,0,0,0,12.857,38.429Zm-10,0A3.571,3.571,0,1,1,6.429,42,3.576,3.576,0,0,1,2.857,38.429Z" transform="translate(36.77 -22.627) rotate(45)" fill="#ff6eb2"/>
</svg>
