<svg xmlns="http://www.w3.org/2000/svg" width="37" height="27.612" viewBox="0 0 37 27.612">
  <g id="unsolved-message" transform="translate(-1485 -22)">
    <path id="messages" d="M29.578,71.467a.354.354,0,0,1,.571.277V83.785a2.827,2.827,0,0,1-2.826,2.826H2.826A2.827,2.827,0,0,1,0,83.785V71.749a.352.352,0,0,1,.571-.277C1.89,72.5,3.639,73.8,9.645,78.162c1.242.907,3.339,2.815,5.429,2.8,2.1.018,4.24-1.931,5.435-2.8C26.516,73.8,28.259,72.491,29.578,71.467Zm-14.5,7.608c1.366.024,3.333-1.719,4.322-2.438,7.814-5.671,8.409-6.165,10.211-7.578a1.409,1.409,0,0,0,.542-1.113V66.826A2.827,2.827,0,0,0,27.322,64H2.826A2.827,2.827,0,0,0,0,66.826v1.119a1.418,1.418,0,0,0,.542,1.113c1.8,1.407,2.4,1.908,10.211,7.578.989.718,2.956,2.461,4.322,2.438Z" transform="translate(1485 -37)" fill="#6e6e6e"/>
    <circle id="椭圆_6" data-name="椭圆 6" cx="6.5" cy="6.5" r="6.5" transform="translate(1509 22)" fill="#f1f1f1"/>
    <circle id="椭圆_3" data-name="椭圆 3" cx="5.5" cy="5.5" r="5.5" transform="translate(1510 23)" fill="#1492e6"/>
  </g>
</svg>
