<svg xmlns="http://www.w3.org/2000/svg" width="26" height="32.936" viewBox="0 0 26 32.936">
  <g id="unsolved-notification" transform="translate(-1439 -21)">
    <path id="notification" d="M12.659,28.936a3.616,3.616,0,0,0,3.615-3.617H9.043A3.616,3.616,0,0,0,12.659,28.936Zm12.173-8.461C23.74,19.3,21.7,17.537,21.7,11.755a8.925,8.925,0,0,0-7.231-8.769V1.808a1.807,1.807,0,1,0-3.615,0V2.986a8.925,8.925,0,0,0-7.231,8.769c0,5.782-2.043,7.546-3.135,8.72A1.766,1.766,0,0,0,0,21.7,1.81,1.81,0,0,0,1.813,23.51H23.5A1.81,1.81,0,0,0,25.318,21.7,1.765,1.765,0,0,0,24.832,20.475Z" transform="translate(1439.001 25)" fill="#6e6e6e"/>
    <circle id="椭圆_7" data-name="椭圆 7" cx="6.5" cy="6.5" r="6.5" transform="translate(1452 21)" fill="#f1f1f1"/>
    <circle id="椭圆_5" data-name="椭圆 5" cx="5.5" cy="5.5" r="5.5" transform="translate(1453 22)" fill="#1492e6"/>
  </g>
</svg>
